<svg width="50" height="50" viewBox="0 0 50 50" fill="none" xmlns="http://www.w3.org/2000/svg">
<rect width="50" height="50" rx="25" fill="white" fill-opacity="0.3"/>
<g clip-path="url(#clip0)">
<path d="M40 15.8888C38.8958 16.3944 37.7111 16.7373 36.4663 16.8904C37.7373 16.1039 38.7103 14.8564 39.1714 13.3744C37.9791 14.1028 36.6631 14.6317 35.2608 14.9184C34.138 13.6805 32.5407 12.9095 30.7692 12.9095C27.3705 12.9095 24.6147 15.7571 24.6147 19.2672C24.6147 19.7651 24.6691 20.2513 24.7741 20.7162C19.6601 20.4508 15.1253 17.919 12.0903 14.0718C11.5597 15.0094 11.2579 16.1019 11.2579 17.2681C11.2579 19.4745 12.3452 21.4213 13.9949 22.5603C12.9863 22.5255 12.0378 22.2388 11.2073 21.7622V21.8416C11.2073 24.9217 13.3294 27.4923 16.1432 28.0773C15.6277 28.2207 15.0841 28.3001 14.5217 28.3001C14.1243 28.3001 13.74 28.2594 13.3631 28.1819C14.1467 30.7099 16.4188 32.5482 19.1108 32.5986C17.0056 34.3033 14.3511 35.3164 11.4679 35.3164C10.9711 35.3164 10.4818 35.2854 10.0001 35.2292C12.7239 37.0366 15.9577 38.0904 19.4333 38.0904C30.7543 38.0904 36.9425 28.4008 36.9425 19.9976L36.9219 19.1743C38.131 18.2831 39.177 17.1635 40 15.8888Z" fill="white"/>
</g>
<defs>
<clipPath id="clip0">
<rect width="30" height="31" fill="white" transform="translate(10 10)"/>
</clipPath>
</defs>
</svg>
